<svg xmlns="http://www.w3.org/2000/svg" width="135" height="40" viewBox="0 0 135 40"><path fill="none" d="M-10-10h155v60H-10z"/><path d="M130 40H5c-2.75 0-5-2.25-5-5V5c0-2.75 2.25-5 5-5h125c2.75 0 5 2.25 5 5v30c0 2.75-2.25 5-5 5z"/><path fill="#A6A6A6" d="M130 .8c2.316 0 4.2 1.884 4.2 4.2v30c0 2.316-1.884 4.2-4.2 4.2H5A4.205 4.205 0 0 1 .8 35V5C.8 2.684 2.684.8 5 .8h125m0-.8H5C2.25 0 0 2.25 0 5v30c0 2.75 2.25 5 5 5h125c2.75 0 5-2.25 5-5V5c0-2.75-2.25-5-5-5z"/><path d="M47.418 10.243c0 .838-.248 1.505-.745 2.003-.564.592-1.3.888-2.204.888-.867 0-1.604-.3-2.21-.9-.605-.6-.908-1.345-.908-2.233 0-.888.303-1.632.91-2.232.604-.6 1.34-.9 2.207-.9.43 0 .84.083 1.23.25.39.168.704.39.938.67l-.527.528c-.396-.475-.943-.712-1.642-.712-.632 0-1.178.222-1.64.666s-.69 1.02-.69 1.73.23 1.286.692 1.73 1.007.666 1.64.666c.67 0 1.228-.223 1.675-.67.29-.29.458-.696.503-1.215h-2.18v-.72h2.908c.03.157.042.308.042.453zm4.61-2.506h-2.732V9.64h2.464v.72h-2.464v1.903h2.732V13h-3.503V7h3.503v.737zM55.28 13h-.772V7.737h-1.676V7h4.123v.737H55.28V13zm4.658 0V7h.77v6h-.77zm4.19 0h-.77V7.737H61.68V7h4.124v.737h-1.676V13zm9.482-.775c-.59.606-1.324.91-2.2.91s-1.61-.304-2.2-.91c-.59-.606-.884-1.348-.884-2.225s.294-1.62.884-2.225c.59-.606 1.322-.91 2.2-.91.87 0 1.603.305 2.195.914.592.608.888 1.348.888 2.22 0 .877-.295 1.62-.884 2.225zm-3.83-.503c.443.45.986.674 1.63.674s1.186-.225 1.63-.674c.443-.45.666-1.024.666-1.722s-.223-1.272-.667-1.722c-.444-.45-.988-.674-1.63-.674s-1.187.225-1.63.674c-.444.45-.667 1.024-.667 1.722s.223 1.272.666 1.722zM75.575 13V7h.938l2.916 4.667h.032l-.033-1.156V7h.77v6h-.805l-3.05-4.894h-.034l.034 1.156V13h-.77z" fill="#FFF" stroke="#FFF" stroke-width=".2" stroke-miterlimit="10"/><path fill="#FFF" d="M68.136 21.75c-2.352 0-4.27 1.79-4.27 4.254 0 2.45 1.918 4.253 4.27 4.253 2.353 0 4.27-1.804 4.27-4.253 0-2.464-1.918-4.253-4.27-4.253zm0 6.833c-1.29 0-2.4-1.063-2.4-2.578 0-1.53 1.112-2.578 2.4-2.578 1.29 0 2.4 1.047 2.4 2.578 0 1.514-1.11 2.578-2.4 2.578zm-9.314-6.832c-2.352 0-4.27 1.79-4.27 4.254 0 2.45 1.918 4.253 4.27 4.253 2.353 0 4.27-1.804 4.27-4.253 0-2.464-1.917-4.253-4.27-4.253zm0 6.833c-1.29 0-2.4-1.063-2.4-2.578 0-1.53 1.112-2.578 2.4-2.578 1.29 0 2.4 1.047 2.4 2.578 0 1.514-1.11 2.578-2.4 2.578zm-11.078-5.526v1.804h4.318c-.13 1.016-.467 1.757-.983 2.272-.63.628-1.612 1.32-3.336 1.32-2.658 0-4.736-2.142-4.736-4.8s2.078-4.8 4.736-4.8c1.434 0 2.48.563 3.254 1.288l1.273-1.273c-1.08-1.03-2.512-1.82-4.526-1.82-3.64 0-6.702 2.964-6.702 6.605 0 3.64 3.06 6.605 6.702 6.605 1.965 0 3.448-.645 4.607-1.853 1.193-1.192 1.564-2.868 1.564-4.22 0-.42-.032-.806-.097-1.128h-6.073zm45.308 1.4c-.354-.95-1.434-2.706-3.64-2.706-2.192 0-4.013 1.725-4.013 4.254 0 2.384 1.804 4.253 4.22 4.253 1.95 0 3.077-1.192 3.545-1.885l-1.45-.967c-.483.71-1.144 1.176-2.095 1.176-.95 0-1.627-.434-2.062-1.288l5.687-2.352-.193-.482zm-5.8 1.42c-.048-1.645 1.273-2.482 2.224-2.482.74 0 1.37.37 1.58.902l-3.804 1.58zM82.63 30h1.867V17.5H82.63V30zm-3.063-7.298h-.064c-.42-.5-1.225-.95-2.24-.95-2.126 0-4.075 1.868-4.075 4.27 0 2.383 1.95 4.236 4.076 4.236 1.015 0 1.82-.45 2.24-.966h.063v.612c0 1.627-.87 2.497-2.27 2.497-1.145 0-1.854-.82-2.144-1.513l-1.627.677c.467 1.127 1.707 2.513 3.77 2.513 2.19 0 4.044-1.29 4.044-4.43V22.01h-1.772v.692zm-2.142 5.88c-1.29 0-2.368-1.08-2.368-2.56 0-1.5 1.08-2.595 2.368-2.595 1.272 0 2.27 1.095 2.27 2.594 0 1.483-.998 2.563-2.27 2.563zm24.38-11.083h-4.47V30H99.2v-4.736h2.605c2.068 0 4.102-1.497 4.102-3.882s-2.033-3.883-4.1-3.883zm.05 6.024H99.2V19.24h2.654c1.395 0 2.187 1.154 2.187 2.142 0 .968-.79 2.142-2.186 2.142zm11.53-1.795c-1.35 0-2.75.594-3.328 1.913l1.656.69c.354-.69 1.014-.916 1.705-.916.965 0 1.946.58 1.962 1.608v.13c-.338-.194-1.062-.483-1.946-.483-1.785 0-3.603.98-3.603 2.814 0 1.673 1.465 2.75 3.105 2.75 1.254 0 1.946-.563 2.38-1.223h.064v.965h1.8v-4.793c.002-2.218-1.656-3.456-3.794-3.456zm-.225 6.85c-.61 0-1.463-.306-1.463-1.062 0-.965 1.062-1.335 1.98-1.335.818 0 1.205.177 1.703.418a2.262 2.262 0 0 1-2.22 1.98zM123.743 22l-2.14 5.42h-.063L119.32 22h-2.01l3.33 7.575-1.9 4.214h1.947l5.13-11.788h-2.074zm-16.806 8h1.865V17.5h-1.865V30z"/><linearGradient id="a" gradientUnits="userSpaceOnUse" x1="21.801" y1="173.291" x2="5.019" y2="156.509" gradientTransform="matrix(1 0 0 -1 0 182)"><stop offset="0" stop-color="#00A0FF"/><stop offset=".007" stop-color="#00A1FF"/><stop offset=".26" stop-color="#00BEFF"/><stop offset=".512" stop-color="#00D2FF"/><stop offset=".76" stop-color="#00DFFF"/><stop offset="1" stop-color="#00E3FF"/></linearGradient><path fill="url(#a)" d="M10.436 7.538c-.29.308-.463.786-.463 1.405V31.06c0 .62.172 1.096.463 1.404l.074.072 12.39-12.39v-.29L10.51 7.465l-.074.073z"/><linearGradient id="b" gradientUnits="userSpaceOnUse" x1="33.834" y1="161.999" x2="9.638" y2="161.999" gradientTransform="matrix(1 0 0 -1 0 182)"><stop offset="0" stop-color="#FFE000"/><stop offset=".409" stop-color="#FFBD00"/><stop offset=".775" stop-color="#FFA500"/><stop offset="1" stop-color="#FF9C00"/></linearGradient><path fill="url(#b)" d="M27.028 24.278l-4.13-4.13v-.292l4.13-4.13.094.053 4.893 2.78c1.397.794 1.397 2.093 0 2.888l-4.893 2.78-.094.052z"/><linearGradient id="c" gradientUnits="userSpaceOnUse" x1="24.828" y1="159.705" x2="2.07" y2="136.947" gradientTransform="matrix(1 0 0 -1 0 182)"><stop offset="0" stop-color="#FF3A44"/><stop offset="1" stop-color="#C31162"/></linearGradient><path fill="url(#c)" d="M27.122 24.225L22.898 20 10.436 32.465c.46.488 1.22.548 2.078.062l14.608-8.3"/><linearGradient id="d" gradientUnits="userSpaceOnUse" x1="7.297" y1="181.823" x2="17.46" y2="171.661" gradientTransform="matrix(1 0 0 -1 0 182)"><stop offset="0" stop-color="#32A071"/><stop offset=".069" stop-color="#2DA771"/><stop offset=".476" stop-color="#15CF74"/><stop offset=".801" stop-color="#06E775"/><stop offset="1" stop-color="#00F076"/></linearGradient><path fill="url(#d)" d="M27.122 15.777l-14.608-8.3c-.857-.487-1.618-.426-2.078.062L22.9 20l4.222-4.225z"/><path opacity=".2" d="M27.03 24.132L12.513 32.38c-.812.46-1.538.43-2.004.01l-.074.075.074.072c.466.42 1.192.45 2.004-.01l14.608-8.3-.093-.095z"/><path opacity=".12" d="M10.436 32.318c-.29-.308-.463-.786-.463-1.405v.146c0 .618.172 1.096.463 1.404l.074-.074-.074-.072zM32.015 21.3l-4.985 2.83.092.093 4.893-2.78c.7-.397 1.048-.92 1.048-1.443-.06.473-.415.936-1.048 1.297z"/><path opacity=".25" fill="#FFF" d="M12.514 7.623l19.5 11.08c.635.36.99.824 1.05 1.298 0-.522-.35-1.046-1.05-1.443l-19.5-11.08c-1.398-.794-2.54-.134-2.54 1.466v.146c0-1.6 1.142-2.26 2.54-1.467z"/></svg>